<?xml version="1.0" encoding="UTF-8" standalone="no"?>
<!-- Created with Inkscape (http://www.inkscape.org/) -->

<svg
   width="184.75217mm"
   height="184.65219mm"
   viewBox="0 0 184.75217 184.65219"
   version="1.1"
   id="svg1554"
   inkscape:version="1.1.1 (3bf5ae0d25, 2021-09-20)"
   sodipodi:docname="steps-2.svg"
   xmlns:inkscape="http://www.inkscape.org/namespaces/inkscape"
   xmlns:sodipodi="http://sodipodi.sourceforge.net/DTD/sodipodi-0.dtd"
   xmlns="http://www.w3.org/2000/svg"
   xmlns:svg="http://www.w3.org/2000/svg">
  <sodipodi:namedview
     id="namedview1556"
     pagecolor="#505050"
     bordercolor="#eeeeee"
     borderopacity="1"
     inkscape:pageshadow="0"
     inkscape:pageopacity="0"
     inkscape:pagecheckerboard="0"
     inkscape:document-units="mm"
     showgrid="false"
     fit-margin-top="0"
     fit-margin-left="0"
     fit-margin-right="0"
     fit-margin-bottom="0"
     inkscape:zoom="0.64052329"
     inkscape:cx="170.95397"
     inkscape:cy="528.47415"
     inkscape:window-width="1920"
     inkscape:window-height="1013"
     inkscape:window-x="-9"
     inkscape:window-y="-9"
     inkscape:window-maximized="1"
     inkscape:current-layer="layer1" />
  <defs
     id="defs1551" />
  <g
     inkscape:label="Layer 1"
     inkscape:groupmode="layer"
     id="layer1"
     transform="translate(-10.479272,-8.8769627)">
    <g
       id="g1749"
       transform="translate(69.396384,-48.742698)"
       style="fill:#08bcde;fill-opacity:1">
      <path
         d="m -49.047385,241.51925 c 4.180681,1.23851 9.377892,0.54662 13.6525,0.54662 9.379215,0 18.758429,0 28.1373789,0 20.4665791,0 40.9336871,0 61.4002661,0 4.388114,0 9.732168,0.72549 14.026091,-0.54662 10.886017,-3.22528 9.485842,-14.78783 9.485842,-23.65693 0,-9.19903 0,-18.39833 0,-27.59763 0,-3.15859 -4.908815,-3.16389 -4.908815,0 0,12.66719 0.85434,25.66141 0,38.30849 -0.580231,8.59102 -7.645664,8.58388 -13.955977,8.58388 -17.424929,0 -34.849857,0 -52.275051,0 -16.315531,0 -32.631062,0 -48.946593,0 -5.831681,0 -10.843154,-2.26034 -11.192933,-9.03552 -0.203729,-3.94335 0,-7.95205 0,-11.89911 0,-37.4605 0,-74.92074 0,-112.38097 0,-10.69843 -0.715434,-21.673082 0,-32.354046 0.517789,-7.732448 6.62596,-8.593138 12.594695,-8.593138 6.996113,0 13.99249,0 20.988602,0 19.90751451,0 39.815293,0 59.722808,0 6.905889,0 13.811779,0 20.717404,0 1.272116,0 2.579687,-0.08758 3.849423,0 6.388364,0.440532 8.497358,5.376069 8.497358,10.936023 0,8.025606 0,16.051213 0,24.076819 0,3.158592 4.908814,3.163892 4.908814,0 0,-8.326173 0.102923,-16.660019 0,-24.985663 -0.05794,-4.683918 -1.154112,-8.844756 -4.937125,-11.945408 -4.508235,-3.694906 -10.345737,-2.990321 -15.772606,-2.990321 -19.82761,0 -39.65522,0 -59.4828302,0 -14.1586478,0 -28.5911388,-0.823647 -42.7315308,0 -15.897489,0.926042 -13.263827,18.058077 -13.263827,29.167667 0,40.842137 0,81.684287 0,122.526427 2.65e-4,10.09359 -3.305439,28.05006 9.486106,31.83943 z"
         id="path6"
         style="fill:#08bcde;fill-opacity:1;stroke-width:0.264583" />
      <path
         d="m 41.446993,85.598172 c 3.159125,0.01111 3.163359,-4.897702 0,-4.908815 -8.009731,-0.02831 -16.019727,-0.05688 -24.029722,-0.08519 -3.158861,-0.01111 -3.163359,4.897437 0,4.908814 8.009995,0.02831 16.019991,0.05662 24.029722,0.0852 z"
         id="path8"
         style="fill:#08bcde;fill-opacity:1;stroke-width:0.264583" />
      <path
         d="m 11.962092,81.300016 c -0.91784,-0.874977 -2.3709316,-0.840581 -3.2459087,0.07726 -0.8747125,0.917575 -0.8403166,2.370931 0.077258,3.245908 0.917575,0.874977 2.3709317,0.840582 3.2459087,-0.07726 0.874977,-0.917839 0.840317,-2.370931 -0.07726,-3.245908 z"
         id="path10"
         style="fill:#08bcde;fill-opacity:1;stroke-width:0.264583" />
      <path
         d="m 55.904885,94.050286 c -12.829381,-0.02831 -25.658233,-0.05688 -38.487614,-0.08519 -3.158861,-0.0071 -3.163359,4.90167 0,4.908814 12.829381,0.02831 25.658233,0.05689 38.487614,0.0852 3.15886,0.0071 3.163623,-4.901671 0,-4.908815 z"
         id="path12"
         style="fill:#08bcde;fill-opacity:1;stroke-width:0.264583" />
      <path
         d="m 11.962092,94.661209 c -0.91784,-0.874977 -2.3709316,-0.840581 -3.2459087,0.07726 -0.8747125,0.917575 -0.8403166,2.370931 0.077258,3.245908 0.917575,0.874977 2.3709317,0.840581 3.2459087,-0.07726 0.874977,-0.91784 0.840317,-2.370932 -0.07726,-3.245909 z"
         id="path14"
         style="fill:#08bcde;fill-opacity:1;stroke-width:0.264583" />
      <path
         d="m -31.766389,112.84682 h 18.155179 c 4.1190331,0 7.4710393,-3.35201 7.4710393,-7.47104 V 87.220597 c 0,-4.119033 -3.3520062,-7.47104 -7.4710393,-7.47104 h -18.155179 c -4.119033,0 -7.47104,3.352007 -7.47104,7.47104 v 18.155183 c -2.64e-4,4.11903 3.352007,7.47104 7.47104,7.47104 z m -2.56249,-25.626223 c 0,-1.412875 1.14935,-2.562225 2.562225,-2.562225 h 18.155179 c 1.412875,0 2.562225,1.14935 2.562225,2.562225 v 18.155183 c 0,1.41287 -1.14935,2.56222 -2.562225,2.56222 h -18.155179 c -1.412875,0 -2.562225,-1.14935 -2.562225,-2.56222 z"
         id="path16"
         style="fill:#08bcde;fill-opacity:1;stroke-width:0.264583" />
      <path
         d="m 41.446993,188.14379 c -8.009731,-0.0286 -16.019727,-0.0569 -24.029722,-0.0852 -3.158861,-0.0111 -3.163359,4.8977 0,4.90881 8.009995,0.0283 16.019991,0.0569 24.029722,0.0852 3.159125,0.0111 3.163359,-4.89771 0,-4.90882 z"
         id="path18"
         style="fill:#08bcde;fill-opacity:1;stroke-width:0.264583" />
      <path
         d="m 11.962092,188.75445 c -0.91784,-0.87498 -2.3709316,-0.84058 -3.2459087,0.0773 -0.8747125,0.91757 -0.8403166,2.37093 0.077258,3.24591 0.917575,0.87497 2.3709317,0.84058 3.2459087,-0.0773 0.874977,-0.91784 0.840317,-2.37093 -0.07726,-3.24591 z"
         id="path20"
         style="fill:#08bcde;fill-opacity:1;stroke-width:0.264583" />
      <path
         d="m 55.904885,201.50472 c -12.829381,-0.0283 -25.658233,-0.0569 -38.487614,-0.0852 -3.158861,-0.007 -3.163359,4.90168 0,4.90882 12.829381,0.0283 25.658233,0.0569 38.487614,0.0852 3.15886,0.007 3.163623,-4.90194 0,-4.90882 z"
         id="path22"
         style="fill:#08bcde;fill-opacity:1;stroke-width:0.264583" />
      <path
         d="m 11.962092,202.11538 c -0.91784,-0.87498 -2.3709316,-0.84058 -3.2459087,0.0773 -0.8747125,0.91757 -0.8403166,2.37093 0.077258,3.24591 0.917575,0.87497 2.3709317,0.84058 3.2459087,-0.0773 0.874977,-0.91784 0.840317,-2.37067 -0.07726,-3.24591 z"
         id="path24"
         style="fill:#08bcde;fill-opacity:1;stroke-width:0.264583" />
      <path
         d="m 17.417271,214.73177 c -3.158861,-0.007 -3.163359,4.90167 0,4.90881 12.829381,0.0283 25.658233,0.0569 38.487614,0.0852 3.15886,0.007 3.163358,-4.90193 0,-4.90881 -12.829381,-0.0286 -25.658233,-0.0569 -38.487614,-0.0852 z"
         id="path26"
         style="fill:#08bcde;fill-opacity:1;stroke-width:0.264583" />
      <path
         d="m 8.7159187,215.50488 c -0.8747125,0.91758 -0.8403166,2.37093 0.077258,3.24591 0.9175749,0.87498 2.3709313,0.84058 3.2459083,-0.0773 0.874977,-0.91757 0.840582,-2.37093 -0.07726,-3.24591 -0.917575,-0.87497 -2.370667,-0.84058 -3.2459087,0.0773 z"
         id="path28"
         style="fill:#08bcde;fill-opacity:1;stroke-width:0.264583" />
      <path
         d="m -31.766389,187.20426 c -4.119033,0 -7.47104,3.352 -7.47104,7.47104 v 18.15385 c 0,4.12036 3.352007,7.47236 7.47104,7.47236 h 18.155179 c 4.1190331,0 7.4710393,-3.352 7.4710393,-7.47236 V 194.6753 c 0,-4.11904 -3.3520062,-7.47104 -7.4710393,-7.47104 z m 20.717404,7.47104 v 18.15385 c 0,1.41288 -1.14935,2.56355 -2.562225,2.56355 h -18.155179 c -1.412875,0 -2.562225,-1.15041 -2.562225,-2.56355 V 194.6753 c 0,-1.41288 1.14935,-2.56223 2.562225,-2.56223 h 18.155179 c 1.412875,0 2.562225,1.14935 2.562225,2.56223 z"
         id="path30"
         style="fill:#08bcde;fill-opacity:1;stroke-width:0.264583" />
      <path
         d="m 2.9313334,160.81075 c -8.4190416,-0.0283 -16.8380834,-0.0569 -25.2568604,-0.0852 -3.159125,-0.0106 -3.163358,4.89797 0,4.90881 8.419042,0.0283 16.8378188,0.0569 25.2568604,0.0852 3.1591249,0.0106 3.1633583,-4.89823 0,-4.90881 z"
         id="path32"
         style="fill:#08bcde;fill-opacity:1;stroke-width:0.264583" />
      <path
         d="m 8.3867771,165.02344 c 0.917575,0.87498 2.3709309,0.84058 3.2459079,-0.077 0.874977,-0.91758 0.840317,-2.37093 -0.07726,-3.24591 -0.917575,-0.87498 -2.3706666,-0.84058 -3.2456437,0.0773 -0.8752416,0.91757 -0.8405812,2.37066 0.076994,3.24564 z"
         id="path34"
         style="fill:#08bcde;fill-opacity:1;stroke-width:0.264583" />
      <path
         d="m 2.9313334,147.44955 c -13.2384274,-0.0286 -26.4765894,-0.0569 -39.7150164,-0.0852 -3.15886,-0.007 -3.163358,4.90193 0,4.90881 13.238427,0.0283 26.476589,0.0569 39.7150164,0.0852 3.1588604,0.007 3.1636229,-4.90194 0,-4.90882 z"
         id="path36"
         style="fill:#08bcde;fill-opacity:1;stroke-width:0.264583" />
      <path
         d="m 8.3867771,151.66251 c 0.917575,0.87498 2.3709309,0.84058 3.2459079,-0.0773 0.874977,-0.91757 0.840317,-2.37093 -0.07726,-3.2459 -0.917575,-0.87498 -2.3706666,-0.84059 -3.2456437,0.0772 -0.8752416,0.91758 -0.8405812,2.37067 0.076994,3.24591 z"
         id="path38"
         style="fill:#08bcde;fill-opacity:1;stroke-width:0.264583" />
      <path
         d="m 2.9313334,134.13757 c -13.2384274,-0.0286 -26.4765894,-0.0569 -39.7150164,-0.0852 -3.15886,-0.007 -3.163358,4.90193 0,4.90881 13.238427,0.0283 26.476589,0.0569 39.7150164,0.0852 3.1588604,0.007 3.1636229,-4.9022 0,-4.90882 z"
         id="path40"
         style="fill:#08bcde;fill-opacity:1;stroke-width:0.264583" />
      <path
         d="m 11.632685,138.27301 c 0.874977,-0.91758 0.840317,-2.37093 -0.07726,-3.24591 -0.917575,-0.87498 -2.3706666,-0.84058 -3.2456437,0.0773 -0.8752416,0.91757 -0.8405812,2.37093 0.076994,3.24591 0.917575,0.87497 2.3706667,0.84058 3.2459077,-0.0773 z"
         id="path42"
         style="fill:#08bcde;fill-opacity:1;stroke-width:0.264583" />
      <path
         d="m 62.563389,119.59184 c -14.264217,0 -25.868312,11.60383 -25.868312,25.86699 0,7.40357 3.127375,14.08985 8.129323,18.80976 0.08546,0.0926 0.176741,0.17912 0.277547,0.25744 4.605338,4.22036 10.736792,6.80111 17.461706,6.80111 6.723857,0 12.856369,-2.58075 17.461971,-6.80111 0.09948,-0.0783 0.1905,-0.16484 0.27596,-0.25744 5.002213,-4.72017 8.129059,-11.40619 8.129059,-18.80976 0,-14.26316 -11.603831,-25.86699 -25.867254,-25.86699 z m 20.971933,27.87015 c 0,0.002 0,0.003 -2.65e-4,0.005 -0.01984,0.21008 -0.0545,0.4154 -0.0807,0.62362 -5.29e-4,0.005 -0.0016,0.0101 -0.0024,0.0153 -0.05583,0.44132 -0.118269,0.88 -0.200819,1.31233 -2.64e-4,0.002 -5.29e-4,0.004 -7.93e-4,0.006 -0.04577,0.24024 -0.101071,0.47651 -0.154782,0.71384 -7.93e-4,0.003 -0.0016,0.006 -0.0024,0.009 -0.09075,0.39741 -0.191029,0.79058 -0.304006,1.17925 -7.94e-4,0.002 -0.0013,0.005 -0.0019,0.007 -0.06906,0.2376 -0.139965,0.47334 -0.217223,0.7075 -7.94e-4,0.002 -0.0019,0.004 -0.0026,0.007 -0.128323,0.38814 -0.270933,0.76914 -0.420952,1.14723 -0.0016,0.004 -0.0026,0.008 -0.004,0.0111 -0.08493,0.21379 -0.164835,0.42916 -0.256646,0.6395 -5.29e-4,0.002 -0.0016,0.003 -0.0021,0.005 -0.187061,0.42889 -0.3937,0.8464 -0.608013,1.25994 -0.0029,0.006 -0.0056,0.0119 -0.0087,0.0177 -0.07408,0.14288 -0.138642,0.29078 -0.216165,0.4318 -7.93e-4,0.001 -0.0016,0.002 -0.0024,0.004 -0.300302,0.5469 -0.623887,1.07871 -0.969962,1.59491 -7.94e-4,0.001 -0.0013,0.002 -0.0021,0.003 -0.100806,0.15055 -0.213783,0.29157 -0.318558,0.43921 -0.210079,0.29686 -0.414867,0.59769 -0.640027,0.88291 0,0 -2.65e-4,-2.6e-4 -2.65e-4,-2.6e-4 0,0 0,2.6e-4 0,2.6e-4 -5.29e-4,-5.3e-4 -7.94e-4,-0.001 -0.0013,-0.002 -0.0029,-0.004 -0.0071,-0.007 -0.0095,-0.0106 -1.026583,1.30201 -2.205566,2.47676 -3.504141,3.50678 0.0032,0.006 0.0066,0.0111 0.0098,0.0169 -0.180181,0.14234 -0.372533,0.26855 -0.556948,0.40507 -0.101071,0.0749 -0.202935,0.1487 -0.305064,0.22172 -0.265113,0.18892 -0.531019,0.37598 -0.804863,0.55245 -0.03625,0.0236 -0.07435,0.0442 -0.110596,0.0675 -0.51091,0.32491 -1.036637,0.62654 -1.575593,0.90752 -0.216694,0.11325 -0.434446,0.22331 -0.655373,0.32888 -0.215636,0.10292 -0.431007,0.20611 -0.650611,0.30189 -0.409046,0.17912 -0.823383,0.34793 -1.245393,0.50112 -0.156898,0.0566 -0.317236,0.10478 -0.475721,0.15796 -0.340254,0.1143 -0.684213,0.22066 -1.03214,0.31803 -0.169598,0.0474 -0.338931,0.0944 -0.510381,0.13732 -0.483658,0.12197 -0.972344,0.23204 -1.468438,0.31935 -0.07514,0.0132 -0.152135,0.0212 -0.227806,0.0336 -0.453231,0.0749 -0.911754,0.13309 -1.37451,0.17833 -0.144992,0.014 -0.290248,0.0275 -0.436298,0.0386 -0.534458,0.041 -1.072356,0.0693 -1.616869,0.0696 -7.94e-4,0 -0.0019,0 -0.0026,0 -2.64e-4,0 -2.64e-4,0 -5.29e-4,0 -2.64e-4,0 -5.29e-4,0 -7.94e-4,0 -0.546893,0 -1.086643,-0.0286 -1.622954,-0.0699 -0.142875,-0.0108 -0.284956,-0.0241 -0.427037,-0.0378 -0.470165,-0.0458 -0.936361,-0.10478 -1.396736,-0.18098 -0.06826,-0.0114 -0.137848,-0.0185 -0.205845,-0.0304 -0.501915,-0.0884 -0.995892,-0.1995 -1.484842,-0.32306 -0.16219,-0.041 -0.322792,-0.0855 -0.483394,-0.13018 -0.363537,-0.10107 -0.722312,-0.21193 -1.077648,-0.33178 -0.144991,-0.0487 -0.2921,-0.0926 -0.435504,-0.14473 -0.430477,-0.15584 -0.853281,-0.32835 -1.270265,-0.51117 -0.207168,-0.0905 -0.409575,-0.18733 -0.613039,-0.28417 -0.239448,-0.11456 -0.475985,-0.23389 -0.710671,-0.35692 -0.252677,-0.13229 -0.503767,-0.26591 -0.750358,-0.40799 -0.311679,-0.17991 -0.61939,-0.36592 -0.92075,-0.56118 -0.256117,-0.16563 -0.504561,-0.34078 -0.753004,-0.51699 -0.126471,-0.0897 -0.251884,-0.18072 -0.375973,-0.27332 -0.172244,-0.12779 -0.352425,-0.24553 -0.520436,-0.37835 0.0029,-0.005 0.0063,-0.0103 0.0093,-0.0159 -1.299104,-1.03002 -2.478352,-2.20477 -3.504936,-3.50705 -0.0026,0.004 -0.0079,0.008 -0.01058,0.0119 -2.65e-4,0 -2.65e-4,-2.7e-4 -2.65e-4,-2.7e-4 -2.64e-4,0 -2.64e-4,2.7e-4 -2.64e-4,2.7e-4 -2.827073,-3.58511 -4.516702,-8.1071 -4.518554,-13.01698 0,-0.002 -2.65e-4,-0.004 -2.65e-4,-0.007 0,0 0,-2.6e-4 0,-5.3e-4 0,-2.6e-4 0,-5.3e-4 0,-7.9e-4 0,-4.52861 1.449917,-8.71723 3.890169,-12.15628 0.20611,-0.29157 0.407723,-0.58685 0.62865,-0.86704 0.0026,0.004 0.0085,0.008 0.01111,0.0122 0.22225,-0.28205 0.452438,-0.55563 0.688446,-0.82577 0.09578,-0.1098 0.196056,-0.21563 0.293952,-0.32332 0.38444,-0.42201 0.783167,-0.82867 1.20015,-1.2184 0.144992,-0.13574 0.291836,-0.26882 0.440796,-0.40058 0.354013,-0.31274 0.71755,-0.61251 1.0922,-0.90144 0.217752,-0.16827 0.436563,-0.3347 0.661194,-0.49477 0.23151,-0.16457 0.46355,-0.32676 0.701939,-0.48181 0.383382,-0.25056 0.77523,-0.48895 1.175015,-0.71464 0.204258,-0.11482 0.411956,-0.22304 0.620448,-0.33125 0.408252,-0.21273 0.822589,-0.41487 1.246187,-0.60114 0.177007,-0.0775 0.3556,-0.15002 0.534988,-0.22278 0.443177,-0.18044 0.894027,-0.34528 1.351227,-0.49556 0.136525,-0.0447 0.270669,-0.0937 0.408252,-0.13547 0.548217,-0.16774 1.107281,-0.30824 1.67349,-0.43127 0.135995,-0.0294 0.271727,-0.0582 0.408516,-0.0849 0.585259,-0.11483 1.177661,-0.20743 1.779058,-0.27226 0.105569,-0.0114 0.211932,-0.0182 0.317765,-0.028 0.643202,-0.0595 1.29196,-0.099 1.950508,-0.099 2.65e-4,0 5.3e-4,0 5.3e-4,0 0,0 0,0 0,0 2.64e-4,0 2.64e-4,0 2.64e-4,0 0.659077,0 1.308629,0.0392 1.952361,0.099 0.105304,0.01 0.210872,0.0167 0.315383,0.028 0.602456,0.0651 1.196181,0.1577 1.782498,0.27279 0.134937,0.0265 0.268816,0.0548 0.40296,0.0839 0.568061,0.1233 1.129506,0.26432 1.679575,0.43286 0.134408,0.041 0.265377,0.0889 0.398198,0.13229 0.463285,0.15214 0.919427,0.31883 1.36816,0.50165 0.170128,0.0691 0.339725,0.13732 0.507736,0.21061 0.4318,0.18944 0.854339,0.39582 1.270529,0.61304 0.204258,0.10636 0.407988,0.2122 0.608542,0.32491 0.403489,0.22754 0.798777,0.46805 1.185598,0.72099 0.233362,0.1524 0.460904,0.31115 0.687916,0.47228 0.235744,0.16775 0.465931,0.34237 0.694531,0.51964 0.361157,0.27914 0.71173,0.56912 1.053836,0.87075 0.157162,0.1389 0.312208,0.2794 0.465137,0.4228 0.401638,0.37597 0.785813,0.76756 1.157288,1.17369 0.111389,0.12197 0.224631,0.24236 0.333375,0.36671 0.231775,0.26565 0.457994,0.53446 0.676539,0.81175 0.0013,0.002 0.0024,0.003 0.0037,0.004 0.0026,-0.004 0.0077,-0.008 0.01058,-0.0119 0.212196,0.26908 0.404548,0.55325 0.603515,0.83265 0.004,0.006 0.0079,0.0108 0.01191,0.0164 0.114564,0.16113 0.237596,0.31538 0.347927,0.47969 5.29e-4,0.001 0.0016,0.002 0.0021,0.003 0.342636,0.51171 0.66384,1.03902 0.961496,1.58115 5.29e-4,0.001 0.0013,0.003 0.0019,0.004 0.08572,0.1561 0.157692,0.31962 0.239448,0.4781 0.004,0.008 0.0077,0.0156 0.01164,0.023 0.204258,0.39635 0.402696,0.79587 0.582083,1.20624 7.94e-4,0.002 0.0013,0.003 0.0021,0.005 0.09578,0.21934 0.179387,0.44423 0.267758,0.66754 0.0016,0.003 0.0029,0.007 0.0042,0.0101 0.14605,0.3691 0.28522,0.74031 0.410368,1.11919 5.3e-4,0.002 0.0011,0.004 0.0016,0.006 0.07964,0.24104 0.152929,0.48419 0.223837,0.72893 7.94e-4,0.003 0.0016,0.005 0.0024,0.008 0.110595,0.381 0.208756,0.7665 0.29792,1.15597 7.94e-4,0.003 0.0016,0.006 0.0021,0.009 0.05583,0.24368 0.111919,0.4863 0.159015,0.73289 2.64e-4,0.002 7.93e-4,0.004 0.0011,0.006 0.08096,0.42466 0.142081,0.85514 0.197115,1.288 5.29e-4,0.005 0.0013,0.01 0.0019,0.0151 0.02725,0.2159 0.06297,0.42862 0.08361,0.64637 2.65e-4,0.002 5.29e-4,0.003 5.29e-4,0.004 0.06059,0.64029 0.09684,1.2872 0.09843,1.94257 2.65e-4,0.0185 0.0029,0.0363 0.0029,0.0545 0,0.0159 -0.0024,0.0312 -0.0024,0.0471 -2.64e-4,0.6604 -0.03704,1.3118 -0.09816,1.95633 z"
         id="path44"
         style="fill:#08bcde;fill-opacity:1;stroke-width:0.264583" />
      <path
         d="m 123.12069,192.91185 -14.22797,-14.22824 c -0.93636,-0.93503 -2.45401,-0.93503 -3.38931,0 -0.93636,0.93636 -0.93636,2.45454 0,3.39064 l 14.22797,14.2277 c 0.84376,0.84376 1.30969,1.96718 1.30969,3.1623 0,1.19486 -0.46593,2.31722 -1.30969,3.16204 -1.74387,1.74413 -4.58205,1.74413 -6.32566,0 L 85.586637,174.80773 c 8.697912,-6.83815 14.293585,-17.45218 14.293585,-29.3489 0,-20.57585 -16.740452,-37.31657 -37.316569,-37.31657 -20.57691,0 -37.316303,16.74072 -37.316303,37.31657 0,20.57691 16.739393,37.31657 37.316303,37.31657 6.934465,0 13.431044,-1.90315 19.000788,-5.21177 l 28.452229,28.45224 c 1.80578,1.80684 4.17936,2.71065 6.55162,2.71065 2.37357,0 4.74583,-0.90355 6.55267,-2.71065 1.74969,-1.74969 2.71409,-4.07644 2.71409,-6.55162 0,-2.47491 -0.9644,-4.80165 -2.71436,-6.5524 z M 62.563389,177.98167 c -17.933194,0 -32.522583,-14.58965 -32.522583,-32.52284 0,-17.93346 14.589389,-32.52285 32.522583,-32.52285 17.933458,0 32.522847,14.58939 32.522847,32.52285 2.65e-4,17.93319 -14.589124,32.52284 -32.522847,32.52284 z"
         id="path46"
         style="fill:#08bcde;fill-opacity:1;stroke-width:0.264583" />
      <path
         d="m 97.959611,171.13981 c -0.448204,0.44583 -0.702204,1.06363 -0.702204,1.69466 0,0.62944 0.254,1.24883 0.702204,1.69333 0.445823,0.44583 1.061509,0.70221 1.694657,0.70353 0.629712,0 1.248572,-0.2577 1.694392,-0.70353 0.44609,-0.44476 0.7022,-1.06389 0.7022,-1.69333 0,-0.63103 -0.25611,-1.24883 -0.7022,-1.69466 -0.44582,-0.44608 -1.06468,-0.7022 -1.694392,-0.7022 -0.633148,0 -1.248834,0.25612 -1.694657,0.7022 z"
         id="path48"
         style="fill:#08bcde;fill-opacity:1;stroke-width:0.264583" />
      <path
         d="m 70.534226,154.82825 -10.675143,-18.9222 c -0.327819,-0.58235 -0.749036,-1.22714 -1.60364,-1.50178 -0.792162,-0.25162 -1.619779,-0.12594 -2.272242,0.3511 -0.642408,0.46858 -1.012031,1.20439 -1.016264,2.02063 -0.02937,0.6387 0.255852,1.14564 0.486039,1.5531 l 10.736792,18.99761 c 0.100542,0.18204 0.2032,0.36301 0.321204,0.5334 0.492654,0.71067 1.269206,1.09908 2.071423,1.09908 0.387615,0 0.781315,-0.09 1.151731,-0.27913 1.033727,-0.52864 1.731169,-1.95104 1.123421,-3.22871 -0.100806,-0.21194 -0.208227,-0.42043 -0.323321,-0.6231 z"
         id="path50"
         style="fill:#08bcde;fill-opacity:1;stroke-width:0.264583" />
      <path
         d="m 54.959529,147.61121 h -0.0029 c -0.0019,0 -0.0037,0 -0.0048,0 -1.672432,0 -3.236913,0.64347 -4.405577,1.81319 -1.200944,1.202 -1.86055,2.8284 -1.85764,4.57915 0.0048,3.33533 2.867819,6.15764 6.252369,6.16241 0.0037,0 0.0071,0 0.01005,0 1.699948,0 3.286654,-0.65564 4.469606,-1.8468 1.188773,-1.19723 1.835415,-2.80431 1.820333,-4.52172 -0.03043,-3.44779 -2.789237,-6.16453 -6.281472,-6.18623 z m 0.0042,7.51787 c -5.29e-4,0 -5.29e-4,0 -0.0013,0 -0.34634,0 -0.670983,-0.13546 -0.914929,-0.381 -0.230717,-0.23124 -0.355865,-0.5334 -0.353484,-0.84957 0.0053,-0.69162 0.582348,-1.27741 1.260211,-1.28112 0.0019,0 0.0037,0 0.0053,0 0.325437,0 0.636322,0.13177 0.876564,0.3728 0.241565,0.2421 0.373327,0.55616 0.370946,0.8845 -0.0053,0.7247 -0.528373,1.25334 -1.243277,1.25439 z"
         id="path52"
         style="fill:#08bcde;fill-opacity:1;stroke-width:0.264583" />
      <path
         d="m 70.179155,130.94564 c -1.682485,0.0193 -3.281891,0.61727 -4.437856,1.77244 -1.190625,1.18877 -1.867693,2.862 -1.858168,4.59132 -0.0013,1.63221 0.654843,3.18055 1.84732,4.36218 1.188244,1.17687 2.742671,1.82166 4.382823,1.82166 0.02275,0 0.04498,0 0.06773,0 1.723231,-0.018 3.310731,-0.6866 4.469606,-1.88278 1.170781,-1.20808 1.821656,-2.88104 1.785673,-4.58893 -0.0635,-2.96571 -2.420938,-6.04943 -6.257132,-6.07589 z m 0.0077,7.5311 c -0.3302,0.007 -0.65987,-0.1188 -0.906727,-0.35719 -0.241564,-0.23363 -0.375708,-0.53922 -0.379412,-0.86175 -0.0077,-0.72257 0.514614,-1.27397 1.21576,-1.28243 l 0.04842,-0.002 c 0.02567,-0.002 0.05159,-0.003 0.07726,-0.003 0.256382,0 0.531548,0.11271 0.750359,0.31035 0.260614,0.23601 0.411162,0.56198 0.414073,0.89403 0.0063,0.71437 -0.529961,1.28614 -1.21973,1.30281 z"
         id="path54"
         style="fill:#08bcde;fill-opacity:1;stroke-width:0.264583" />
    </g>
  </g>
</svg>
