<svg width="1728" height="1117" viewBox="0 0 1728 1117" fill="none" xmlns="http://www.w3.org/2000/svg">
<path d="M1754.35 -15.146H-62.6298V1123.72H1754.35V-15.146Z" fill="#08BCDE"/>
<path d="M1870.07 110.806L1522 -146.398C1498.41 -163.834 1470.16 -154.452 1458.92 -125.442L1339.67 182.215C1328.43 211.225 1338.44 248.877 1362.04 266.313L1710.1 523.518C1733.7 540.954 1761.94 531.571 1773.18 502.562L1892.43 194.904C1903.67 165.894 1893.66 128.242 1870.07 110.806Z" fill="url(#paint0_linear_506_23)"/>
<path d="M337.334 143.728C307.578 11.0025 195.439 -71.9431 86.8642 -41.5362C-21.7102 -11.1293 -85.6047 121.116 -55.8483 253.841C-26.0918 386.566 86.0474 469.512 194.622 439.105C303.196 408.698 367.091 276.453 337.334 143.728Z" fill="url(#paint1_linear_506_23)"/>
<path d="M721.251 344.592C735.973 431.528 831.739 487.783 935.15 470.24C1038.56 452.697 1110.46 368 1095.73 281.064C1081.01 194.128 985.245 137.874 881.835 155.416C778.424 172.959 706.528 257.656 721.251 344.592Z" fill="url(#paint2_linear_506_23)"/>
<path d="M134.525 1009.7L679.086 848.528C696.272 843.441 706.514 823.747 701.963 804.539L638.102 535.002C633.551 515.794 615.93 504.346 598.744 509.433L54.1832 670.603C36.9973 675.689 26.7547 695.384 31.3056 714.592L95.1672 984.129C99.7182 1003.34 117.339 1014.78 134.525 1009.7Z" fill="url(#paint3_linear_506_23)"/>
<path d="M1710.03 857.077L1367.52 529.975C1343.04 506.595 1299.26 499.29 1269.73 513.658L943.647 672.357C914.124 686.725 910.036 717.326 934.517 740.705L1277.03 1067.81C1301.51 1091.19 1345.29 1098.49 1374.82 1084.12L1700.9 925.425C1730.43 911.057 1734.51 880.456 1710.03 857.077Z" fill="url(#paint4_linear_506_23)"/>
<defs>
<linearGradient id="paint0_linear_506_23" x1="1518.93" y1="379.17" x2="1737.18" y2="275.853" gradientUnits="userSpaceOnUse">
<stop stop-color="#08C9DE"/>
<stop offset="1" stop-color="#08C9DE" stop-opacity="0"/>
</linearGradient>
<linearGradient id="paint1_linear_506_23" x1="194.622" y1="439.105" x2="61.968" y2="-34.5639" gradientUnits="userSpaceOnUse">
<stop stop-color="#17AAD1"/>
<stop offset="1" stop-color="#17AAD1" stop-opacity="0"/>
</linearGradient>
<linearGradient id="paint2_linear_506_23" x1="818.501" y1="208.899" x2="893.327" y2="394.889" gradientUnits="userSpaceOnUse">
<stop stop-color="#08D4DE"/>
<stop offset="1" stop-color="#08D4DE" stop-opacity="0"/>
</linearGradient>
<linearGradient id="paint3_linear_506_23" x1="670.033" y1="669.771" x2="55.2004" y2="815.443" gradientUnits="userSpaceOnUse">
<stop stop-color="#21D4E2"/>
<stop offset="1" stop-color="#21D4E2" stop-opacity="0"/>
</linearGradient>
<linearGradient id="paint4_linear_506_23" x1="1303.25" y1="873.202" x2="1269.15" y2="651.524" gradientUnits="userSpaceOnUse">
<stop stop-color="#1EAAD2"/>
<stop offset="1" stop-color="#1EAAD2" stop-opacity="0"/>
</linearGradient>
</defs>
</svg>
